<svg id="Layer_1" data-name="Layer 1" xmlns="http://www.w3.org/2000/svg" xmlns:xlink="http://www.w3.org/1999/xlink" viewBox="0 0 607.04 610"><defs><style>.cls-1{fill:#070014;stroke:#003;}.cls-1,.cls-2,.cls-3,.cls-4,.cls-6,.cls-8{stroke-miterlimit:10;}.cls-2{fill:#4d4d4d;}.cls-2,.cls-4,.cls-6,.cls-8{stroke:#000;}.cls-3,.cls-4,.cls-5{fill:#ccc;}.cls-3{stroke:#070014;}.cls-6{fill:url(#New_Gradient_Swatch_1);}.cls-7{fill:#493e37;}.cls-8{fill:#e2d6bc;}.cls-9{fill:#ede6d6;}.cls-10{fill:#fff;}</style><radialGradient id="New_Gradient_Swatch_1" cx="332.43" cy="284.27" r="143.49" gradientUnits="userSpaceOnUse"><stop offset="0" stop-color="#bf0a00"/><stop offset="0.2" stop-color="#bb0a00"/><stop offset="0.39" stop-color="#af0b00"/><stop offset="0.57" stop-color="#9c0d00"/><stop offset="0.76" stop-color="#811000"/><stop offset="0.94" stop-color="#5e1300"/><stop offset="1" stop-color="#511400"/></radialGradient></defs><ellipse class="cls-1" cx="303.52" cy="305" rx="303.02" ry="304.5"/><path class="cls-2" d="M224,379.2s-15.14-7.72-25.79-31.66c0,0-39.36-74,21.12-155.35,0,0,62.73-77.07,129.21-69.38,0,0,35.75-.16,29.42,13.78Z" transform="translate(-92.98 -1.5)"/><path class="cls-3" d="M262.21,338.29s14.87-3.23,12.44,3.6l.27,5.65-10.29-1.25S261,344.87,262.21,338.29Z" transform="translate(-92.98 -1.5)"/><path class="cls-4" d="M263.41,350.24s9.06-1.82,10.57,0c0,0,8.43,40.38,2.4,41.89,0,0-5.13,1.52-7.56,0,0,0-9.69-4.82-9.15-9.1l-3.83-12.91S260.79,351.56,263.41,350.24Z" transform="translate(-92.98 -1.5)"/><path class="cls-4" d="M246.38,382.92S229,521,225.16,525.61c0,0-5.45,5.45,0,7.09L236.88,536s3.28,2.18,4.09-4.36l20.18-143.87v-4.82l-13.94-2.6Z" transform="translate(-92.98 -1.5)"/><path class="cls-4" d="M242.43,363.36s7,10.75,27.07,12.37c0,0,.57,7-1.06,11.11,0,0-17.59,5.74-29.6-11.74C238.84,375.1,237.77,369.81,242.43,363.36Z" transform="translate(-92.98 -1.5)"/><path class="cls-4" d="M251.39,379.2s4.48-2.58,6.28,1L238.73,507.88s-4.71,1-3.4-5Z" transform="translate(-92.98 -1.5)"/><path class="cls-4" d="M296.86,433.41s.92,24.21,30.94,41.52l13,12.41a22.25,22.25,0,0,1-16.23-4.45S299.82,463,289.07,448.27c0,0-4.77-7.37-3.8-10.36,0,0,.86-9.13,3.8-10.11Z" transform="translate(-92.98 -1.5)"/><path class="cls-5" d="M584.12,352l17.75,9.37A16.68,16.68,0,0,1,605.33,374l13.4,57.49a15.67,15.67,0,0,1-1.63,13h3.65l5.47,31.21s1,2.83-2.43,3.64l-14.39,1.22s-3.87.81-4.16-3.65l-2.32-28.16s2.41-.21,2.32-4.06c0,0-17.92-35.05-17.52-39.91,0,0-2.23-30.6-2.23-34.25,0,0-2.43-1.62-3,2.43a67.42,67.42,0,0,1-8.91,21.48,18.71,18.71,0,0,0,1.82,12.56l10.54,33.44s3.24,3.44,4.46,3.65l3.85,11.34s1.21,1.42-.81,3.65a15.05,15.05,0,0,1-8.92,2.23,4,4,0,0,1-3.23-3.44l-3.66-9.73s1.83-4.05,1-5.47c0,0-11.34-21.13-12.76-23.94,0,0-28.78,46.84-49.44,52.91Z" transform="translate(-92.98 -1.5)"/><path class="cls-4" d="M592.59,364.79l10.13,24.51s10.13,39.51,11.75,52.27c0,0-.2,3-3.24-1,0,0-16-34-15-52.48a4.84,4.84,0,0,0-1-3.44S588.33,367,592.59,364.79Z" transform="translate(-92.98 -1.5)"/><path class="cls-4" d="M594.31,361.48s8.32,2.66,7.44,7.44c0,0-.71,5,1.08,7.22a11.52,11.52,0,0,1-.75,5.55s-3.85-9.74-4.33-14.33c0,0,0-2.77-1.33-3.1C596.42,364.26,594.17,363.06,594.31,361.48Z" transform="translate(-92.98 -1.5)"/><path class="cls-6" d="M305.81,438.62S246.73,405,224,379.2c0,0-63.77-118.62,19.74-197.22,0,0,76.92-71.27,130-47l90.5,35s-66.75-5.57-140.7,82C323.47,251.93,282,415.66,305.81,438.62Z" transform="translate(-92.98 -1.5)"/><path class="cls-7" d="M289.59,360.17s-7.44-57,33.88-108.24c0,0,74.78-102.71,173.52-78.21,0,0,78.91,17.48,89.65,103.82,0,0,16.82,77.52-44.28,168.22,0,0-70.78,89.06-163.54,63.46C378.82,509.22,291.48,486.49,289.59,360.17Z" transform="translate(-92.98 -1.5)"/><path class="cls-4" d="M292,353.06s4.06,3.25,5.84,1c0,0,3.05-46,27.18-80.92,0,0,6.28-7.27-1.87-7.27C323.11,265.85,298.3,295.78,292,353.06Z" transform="translate(-92.98 -1.5)"/><path class="cls-4" d="M351.89,235.43s33.84-35.93,53.33-43.24c0,0,6-4.53-2.14-5.38,0,0-35.34,22.27-53.12,43.05C350,229.86,345.68,239.07,351.89,235.43Z" transform="translate(-92.98 -1.5)"/><path class="cls-4" d="M289.42,358.48s11.39,9.84,18.23,2.85l.68,22.21s-15.46,4.37-17.63-3Z" transform="translate(-92.98 -1.5)"/><path class="cls-4" d="M323.47,251.93s.9,12.35,15.46,13.15L350.34,249s-2.81-11.95-15-11.27Z" transform="translate(-92.98 -1.5)"/><path class="cls-8" d="M307.65,361.33s-.8-52.14,31.28-96.25c0,0,21.26-41.51,75.8-73.39,0,0,50.13-30.28,96.25-12.23,0,0,36.49,12,56.14,50.53,0,0,28,63.2,5.16,134,0,0-25.44,69.67-57.31,93.66,0,0-54.55,48.74-121.85,45,0,0-39.18-3-63.18-46.86C329.94,455.8,304.48,411.21,307.65,361.33Z" transform="translate(-92.98 -1.5)"/><path class="cls-9" d="M328.68,400.05s1.8-124.26,97.7-185c0,0,53.58-36,95.9-17.55,0,0,55.38,11.88,49.07,109,0,0,4.06,49-38.72,126,0,0-27.46,45.78-88.32,63.65C444.31,496.12,329.49,540.91,328.68,400.05Z" transform="translate(-92.98 -1.5)"/><path class="cls-10" d="M514.6,406.57s30.7-51.16,36-84.34c0,0,4-18.6,10.54-8.06,0,0-4.65,60.46-40,99.53,0,0-12.27,9.67-11.29,2Z" transform="translate(-92.98 -1.5)"/></svg>