<svg id="Layer_1" data-name="Layer 1" xmlns="http://www.w3.org/2000/svg" xmlns:xlink="http://www.w3.org/1999/xlink" viewBox="0 0 607.04 610"><defs><style>.cls-1{fill:#070014;stroke:#003;stroke-miterlimit:10;}.cls-2{fill:url(#linear-gradient);}.cls-3{fill:#c68f4e;}.cls-4{fill:#b3b3b3;}.cls-5{fill:#a05d1a;}.cls-6{fill:url(#linear-gradient-2);}.cls-7{fill:#999;}</style><linearGradient id="linear-gradient" x1="252.18" y1="287.59" x2="439.26" y2="287.59" gradientTransform="translate(110.36 -88.16) rotate(18.98)" gradientUnits="userSpaceOnUse"><stop offset="0" stop-color="#f7931e"/><stop offset="1" stop-color="#f7bb1e"/></linearGradient><linearGradient id="linear-gradient-2" x1="385.72" y1="315.51" x2="572.8" y2="315.51" gradientTransform="translate(128.71 -138.75) rotate(18.98)" xlink:href="#linear-gradient"/></defs><ellipse class="cls-1" cx="303.52" cy="305" rx="303.02" ry="304.5"/><ellipse class="cls-2" cx="343.72" cy="296.25" rx="68.9" ry="206.32" transform="translate(-201.79 328.32) rotate(-45)"/><path class="cls-3" d="M372.17,411s-14.55-41-10.85-52.94c0,0,50.81,38.28,64.45,11.07L469,452.85S440.73,463.64,372.17,411Z" transform="translate(-92.98 -1.5)"/><path class="cls-4" d="M264.89,311.52a36.29,36.29,0,0,0,8.88,37.68s54.15,59.26,79.71,44.5Z" transform="translate(-92.98 -1.5)"/><ellipse class="cls-5" cx="351.27" cy="303.81" rx="37.6" ry="105.83" transform="translate(-205.82 319.26) rotate(-42.95)"/><ellipse class="cls-6" cx="479.26" cy="315.51" rx="68.9" ry="206.32" transform="translate(-169.55 171.57) rotate(-18.98)"/><ellipse class="cls-5" cx="492.98" cy="326.6" rx="31.23" ry="90.32" transform="translate(-172.41 176.63) rotate(-18.98)"/><path class="cls-7" d="M467.26,270.7s47.18,39.09,47.18,72.79a229.47,229.47,0,0,1-4,38.65s-7.19,11.68,4,15.73c0,0,21.12,8.09,24.27-4.05C538.71,393.82,588.14,300.8,467.26,270.7Z" transform="translate(-92.98 -1.5)"/></svg>