<svg id="Layer_1" data-name="Layer 1" xmlns="http://www.w3.org/2000/svg" xmlns:xlink="http://www.w3.org/1999/xlink" viewBox="0 0 607.04 610"><defs><style>.cls-1{fill:#070014;stroke:#003;stroke-miterlimit:10;}.cls-2{fill:url(#linear-gradient);}.cls-3{fill:#c69c6d;}.cls-4{fill:url(#New_Gradient_Swatch_1);}.cls-5{fill:url(#radial-gradient);}.cls-6{fill:#a67c52;}.cls-7{fill:#42210b;}.cls-8{fill:url(#New_Gradient_Swatch_2);}.cls-9{fill:#c7b299;}.cls-10{fill:url(#New_Gradient_Swatch_2-2);}.cls-11{fill:url(#New_Gradient_Swatch_2-3);}.cls-12{fill:url(#New_Gradient_Swatch_2-4);}.cls-13{fill:url(#New_Gradient_Swatch_2-5);}.cls-14{fill:#c69c6f;}.cls-15{fill:url(#New_Gradient_Swatch_2-6);}.cls-16{fill:url(#New_Gradient_Swatch_2-7);}</style><linearGradient id="linear-gradient" x1="191.67" y1="380.81" x2="584.08" y2="380.81" gradientUnits="userSpaceOnUse"><stop offset="0.33" stop-color="#a30a00"/><stop offset="0.53" stop-color="#810e00"/><stop offset="0.84" stop-color="#511400"/></linearGradient><radialGradient id="New_Gradient_Swatch_1" cx="388.05" cy="290.81" r="194.93" gradientTransform="matrix(0.01, 1, -0.21, 0, 447.65, -97.61)" gradientUnits="userSpaceOnUse"><stop offset="0" stop-color="#bf0a00"/><stop offset="0.2" stop-color="#bb0a00"/><stop offset="0.39" stop-color="#af0b00"/><stop offset="0.57" stop-color="#9c0d00"/><stop offset="0.76" stop-color="#811000"/><stop offset="0.94" stop-color="#5e1300"/><stop offset="1" stop-color="#511400"/></radialGradient><radialGradient id="radial-gradient" cx="390.4" cy="287.59" r="168.17" gradientTransform="matrix(0.01, 1, -0.19, 0, 439.64, -103.47)" gradientUnits="userSpaceOnUse"><stop offset="0" stop-color="#fff"/><stop offset="0.17" stop-color="#f9f9f9"/><stop offset="0.39" stop-color="#e8e8e8"/><stop offset="0.64" stop-color="#cdcdcd"/><stop offset="0.91" stop-color="#a7a7a7"/><stop offset="1" stop-color="#999"/></radialGradient><radialGradient id="New_Gradient_Swatch_2" cx="184.45" cy="416.2" r="8.08" gradientTransform="translate(-117.25 538.65) rotate(-77.59) scale(1 0.64)" gradientUnits="userSpaceOnUse"><stop offset="0" stop-color="#ffea81"/><stop offset="0.52" stop-color="#ffd648"/><stop offset="1" stop-color="#ffc517"/></radialGradient><radialGradient id="New_Gradient_Swatch_2-2" cx="270.71" cy="321.68" r="10.74" gradientTransform="translate(-36.05 -51.73) scale(1.14 1.16)" xlink:href="#New_Gradient_Swatch_2"/><radialGradient id="New_Gradient_Swatch_2-3" cx="303.57" cy="454.45" r="11.49" gradientTransform="matrix(1, 0, 0, 1, 0, 0)" xlink:href="#New_Gradient_Swatch_2"/><radialGradient id="New_Gradient_Swatch_2-4" cx="402.13" cy="342.71" r="13.04" gradientTransform="matrix(1, 0, 0, 1, 0, 0)" xlink:href="#New_Gradient_Swatch_2"/><radialGradient id="New_Gradient_Swatch_2-5" cx="465.55" cy="462.59" r="8.77" gradientTransform="translate(-159.88 -97.35) scale(1.35 1.21)" xlink:href="#New_Gradient_Swatch_2"/><radialGradient id="New_Gradient_Swatch_2-6" cx="529.79" cy="343.49" r="11.26" gradientTransform="translate(-41.62 -68.45) scale(1.08 1.2)" xlink:href="#New_Gradient_Swatch_2"/><radialGradient id="New_Gradient_Swatch_2-7" cx="576.35" cy="440.01" r="11.43" gradientTransform="matrix(1, 0, 0, 1, 0, 0)" xlink:href="#New_Gradient_Swatch_2"/></defs><ellipse class="cls-1" cx="303.52" cy="305" rx="303.02" ry="304.5"/><path class="cls-2" d="M191.67,286.21l.77,143.35S210.09,463,374,472.28c0,0,117.43,15,193.89-20.72l16.23-137.45S347.12,343.08,191.67,286.21Z" transform="translate(-92.98 -1.5)"/><path class="cls-3" d="M255,332.11a9.44,9.44,0,0,1,6.52-2.66s-55.8,99.92-62.41,100a7.92,7.92,0,0,1-6.6.1s-3-.56-1.75-3.88l1-23.12s2.62-.57,6.07-5.7l35.67-39S250.15,333.86,255,332.11Z" transform="translate(-92.98 -1.5)"/><ellipse class="cls-4" cx="388.05" cy="290.81" rx="40.42" ry="202.13" transform="translate(-23.33 655.07) rotate(-85.81)"/><ellipse class="cls-5" cx="390.44" cy="287.59" rx="27.6" ry="175.97" transform="translate(-17.9 654.46) rotate(-85.81)"/><path class="cls-6" d="M360.59,301s6.39-1.11,6.09-6.39a5.5,5.5,0,0,1,3.35-4.45s4.87-4.72,12.79-1.39c0,0,8.53,5.86,2.14,16.27,0,0-7,9.31-19.8,2.36C365.16,307.41,360.89,304.63,360.59,301Z" transform="translate(-92.98 -1.5)"/><path class="cls-3" d="M360.94,283.78s14.31-3.1,22.23,5.28c0,0-9.74-5.47-15.51,5.25-.22.4-.43.82-.63,1.27a4.49,4.49,0,0,1-.07,1.72c-.36,1.6-1.66,4-6,5.42C360.94,302.72,353.91,287.46,360.94,283.78Z" transform="translate(-92.98 -1.5)"/><path class="cls-6" d="M213.33,158.8S336.18,262.65,358.48,288.24l5.07-4.15S277.91,180.4,240.18,144.65l-7.86-7.86s-10.61-9-17.29,0l-5.11,7.47S203.44,150.4,213.33,158.8Z" transform="translate(-92.98 -1.5)"/><polygon class="cls-3" points="273.9 293.34 274.95 292.32 273.98 295.8 273.9 293.34"/><path class="cls-6" d="M446.18,256.23s-.93,6.43,4.18,7.78a5.49,5.49,0,0,1,3.18,4.57s3,6.1-2.66,12.59c0,0-8.21,6.28-16.12-3,0,0-6.66-9.55,3.92-19.55C438.68,258.58,442.65,255.4,446.18,256.23Z" transform="translate(-92.98 -1.5)"/><path class="cls-3" d="M462.45,261.93s-1.51,14.57-11.94,19.48c0,0,8.24-7.55-.16-16.37-.31-.33-.65-.66-1-1a4.3,4.3,0,0,1-1.61-.6c-1.41-.83-3.25-2.8-3.28-7.41C444.45,256,461.14,254.1,462.45,261.93Z" transform="translate(-92.98 -1.5)"/><path class="cls-6" d="M627.18,160.57S490.24,245,459,258.2l2.36,6.11s125.2-49.1,170.92-73.82l9.91-5s11.89-7.27,5.39-16.43l-5.51-7.18S638.23,153.79,627.18,160.57Z" transform="translate(-92.98 -1.5)"/><path class="cls-7" d="M192.44,429.56s160.27,69.51,375.41,22c0,0,17.56.26,14,16.61,0,0-203.45,54.22-390.14-19.3,0,0-10.47-5.48-7-15.59C184.66,433.28,186.39,428.77,192.44,429.56Z" transform="translate(-92.98 -1.5)"/><path class="cls-8" d="M195,407.2s.87-5-5.89-4.75-10.79,16.11-6.62,19.41c0,0,5.18,7.2,11.65,2.16A79.47,79.47,0,0,0,195,407.2Z" transform="translate(-92.98 -1.5)"/><path class="cls-6" d="M273.84,337.48S269.2,438.15,306.4,447.84c0,0-13.42-.49-17.67,8.61C288.73,456.45,264.25,437.82,273.84,337.48Z" transform="translate(-92.98 -1.5)"/><path class="cls-9" d="M273.84,337.48s11.7-7.84,11.85,23.63c0,0,5.11,44.14,12.69,67.24,0,0,8.16,20.61,24.48,0,0,0,50.86-78.6,64.48-83.85,0,0,8.08,16.61,26.44,5.25,0,0,22.14,17.48,38.46,70.52,0,0,7.87,27.68,13.12,29.72,0,0,8.45,9.91,13.69-5.82,0,0,32.06-87.72,42-92.09,0,0,7.29,3.21,11.08,1.46,0,0-11.08,6.12-12.82,15.44,0,0-28.27,80.72-37.6,90.92,0,0-20.69-5.53-26.22,2.62,0,0-10.49-9-14.28-33,0,0-9.62-55.24-35.55-70.69,0,0-24.09-5.82-37.69,24.77,0,0-29.92,76.35-50,76.35,0,0,5-6.64-11.5-12.06,0,0-15.69-1.89-24.28-30.64C282.12,417.2,273,390.63,273.84,337.48Z" transform="translate(-92.98 -1.5)"/><path class="cls-9" d="M197.07,397.69a22.52,22.52,0,0,1,7.31,10.8s33.91-66,50.86-76.08C255.24,332.41,216.9,367.29,197.07,397.69Z" transform="translate(-92.98 -1.5)"/><path class="cls-10" d="M262.78,313.62l23.8,5.14s2.24,5.93-1.91,10.63c0,0-4.15,5.9-20.15,1.21,0,0-7.12-2.27-6.67-8.33C257.85,322.27,257.33,315.87,262.78,313.62Z" transform="translate(-92.98 -1.5)"/><path class="cls-11" d="M288.73,456.45s3-8.74,17.67-8.61c0,0,15,3.7,11.5,12.06l-1.41,1.16Z" transform="translate(-92.98 -1.5)"/><path class="cls-12" d="M387.34,344.5s-1.94-10.34,9.16-12.6l13,.72s13.61,4,4.25,17.13C413.78,349.75,396.64,361.08,387.34,344.5Z" transform="translate(-92.98 -1.5)"/><path class="cls-13" d="M454.06,467.13s-1.84-10.24,17.54-10.94c0,0,9.57-1.25,13.62,9Z" transform="translate(-92.98 -1.5)"/><path class="cls-14" d="M481.67,459.9a17.53,17.53,0,0,1,3.55,5.26L520.61,365S484.84,459.68,481.67,459.9Z" transform="translate(-92.98 -1.5)"/><path class="cls-15" d="M516.22,338.42s14-11.45,24.87,1.4c0,0,5.48,6.48-.91,10.68,0,0-12.78,9.54-24-2.67C516.22,347.83,511.77,344.27,516.22,338.42Z" transform="translate(-92.98 -1.5)"/><path class="cls-14" d="M535.11,353s19.26,6,37,62.07l-2.88,26.26s-18.83-86.53-40.51-85.6l3.33-2.22S533.46,353.37,535.11,353Z" transform="translate(-92.98 -1.5)"/><path class="cls-9" d="M572.15,415.1s6.3,10,7,14.37l-8.65.87Z" transform="translate(-92.98 -1.5)"/><path class="cls-16" d="M570.48,430.34s1.12-8.57,8.65-.87c0,0,14.64,10.8-2.91,24.29,0,0-4.78-3-8.37-2.2C567.85,451.56,570.64,431.75,570.48,430.34Z" transform="translate(-92.98 -1.5)"/></svg>