<svg id="Layer_1" data-name="Layer 1" xmlns="http://www.w3.org/2000/svg" xmlns:xlink="http://www.w3.org/1999/xlink" viewBox="0 0 560.62 576.75"><defs><style>.cls-1{fill:#070014;stroke:#003;stroke-miterlimit:10;}.cls-2{fill:#b72600;}.cls-3{fill:#e66500;}.cls-4{fill:#fff;}.cls-5{fill:#fcee7b;}.cls-6{fill:url(#linear-gradient);}.cls-7{fill:#fce107;}.cls-8{fill:#f9ffc0;}</style><linearGradient id="linear-gradient" x1="340.66" y1="269.07" x2="516.06" y2="269.07" gradientTransform="matrix(1, 0, 0, -1, -141.49, 578)" gradientUnits="userSpaceOnUse"><stop offset="0" stop-color="#e93400"/><stop offset="1" stop-color="#f18124"/></linearGradient></defs><circle class="cls-1" cx="280.31" cy="296.44" r="279.81"/><path class="cls-2" d="M196.59,212.7s-8.29-23.87,19-25.33c0,0,19-45.8,55.54-20.47,0,0,66.75-30.69,77.95,27.77,0,0,20-19,33.13,15.59l9.3,14.62s39.47,12.18,31.18,46.77l13.12,13.65s18-.49,10.72,15.59c0,0,31.67,29.23-5.36,56l-1.46,10.23s14.13,41.41-35.57,31.67c0,0,1.46,8.28-7.31,10.23h-22.9s-4.87,30.2-39.46,32.15l-29.23-11.69s-5.85,31.67-34.11,20.95c0,0-17,9.75-23.87-2.44,0,0-2.93,5.85-6.34-1,0,0-11.2,15.59-25.82-2.44l-19.7-4.38s-22.69-1-19.76-22.41c0,0-37.52-1.95-30.21-44.83l-.92-11.63s-30.72-25.8,1.92-54.8c0,0-25.82-25.1,4.39-45.08L165.4,241S158.1,208.32,196.59,212.7Z"/><path class="cls-3" d="M209.51,197.42s10.88-10.24,14.72,0c0,0,6.41,7,8.33-2.27,0,0-9.61-7.33,0-13.74,0,0,21.77-18.57,30.1,3.85l36.5-7.69s20.49-14.73,26.25,4.48c0,0,19.85-10.24,15.37,25.62,0,0,25-14.73,31.38,7.68l12.16,17.29s32,12.81,23.7,39.7l17.93,16S440,305,426,321c0,0,12.17,3.95,14.09-9.23,0,0,23,24-7,38.69l1.28,16.65s12.17,36.5-47.38,19.21l-26.33,17.3s6.4,25-24.33,28.18l-32-3.85s1.23,10.25-30.77,12.17H259.43s-12.16,3.84-12.16-6.4c0,0-5.77,10.88-25.62,4.48l-24.33-5.76s-23.69,1.92-12.17-22.42c0,0-39.06,3.84-28.81-42.26l-1.72-11.53S128.8,341,151.21,311.78l1.3-10.62s-10.88-25.61,15.37-30.1L174.27,241s-5.76-23.09,26.24-21.17Z"/><path class="cls-4" d="M165.94,152.19S291.85,291.73,284.35,0c0,0-6.69,243.27,45.34,173.9,0,0-17.34,101.89,108.4-24.93,0,0-138.75,136.57,44.44,107.31,0,0-117.07,30.35-56.37,66.12,0,0-36.85,17.34,72.63,49.86,0,0-185.36-55.28-62.87,72.62,0,0-126.82-113.46-92.13,64,0,0-52-157.72-84.55-38.48,0,0,9.75-119.24-101.89,29.26,0,0,79.88-112.73,12.3-106.22,0,0,40.81-59.62-94.68-11.93,0,0,163.67-52,57.45-86.71,0,0,103-3.25-44.45-86.72C88,208,233.06,277.36,165.94,152.19Z"/><path class="cls-5" d="M190.68,187.69s100.15,111,94.19-121c0,0-5.32,193.5,36.07,138.32,0,0-13.8,81,86.22-19.83,0,0-110.37,108.64,35.35,85.36,0,0-93.12,24.14-44.84,52.59,0,0-29.31,13.8,57.77,39.66,0,0-147.44-44-50,57.77,0,0-100.88-90.25-73.29,50.87,0,0-41.38-125.45-67.25-30.61,0,0,7.76-94.84-81,23.28,0,0,63.55-89.67,9.79-84.49,0,0,32.46-47.42-75.31-9.49,0,0,130.19-41.38,45.69-69,0,0,81.91-2.59-35.35-69C128.66,232.12,244.07,287.26,190.68,187.69Z"/><path class="cls-6" d="M278.8,245.48s52.71-34.27,55.63,31.35c0,0,41.56-10.2,40.1,32.82,0,0,0,37.91-27,29.89,0,0-3.35,35-29.75,36.46,0,0-13.27,26.25-43.17,8.75,0,0-12.39,0-6.56-10.21,0,0-5.1-.73-8.75,2.19,0,0,.73,9.48-10.21,1.46,0,0-9.48-4.38-5.83-17.5,0,0-26.25,14.58-22.6-9.48,0,0-8,.73-7.3-5.83,0,0-15.31,5.83-9.47-10.94,0,0-8.49-3.65-1.33-8.75,0,0-11.8-18.23,8.62-24.79,0,0,8-6.57.73-9.48,0,0-7.3-17.5,6.56-19,0,0-27.71-22.61,5.83-39.38C224.32,233.08,252.34,213.4,278.8,245.48Z"/><path class="cls-7" d="M225.78,273.92s-5.1-33.54,33.54-19c0,0-18.45-1.49-16.88,7.64,0,0,31.16-2.54,44.44,17.88,0,0,4.53-13.85,17.65-5.83,0,0,21.88,11.66,0,27,0,0,15.31,5.83,2.92,24.06,0,0-16,20.41-37.54,0,0,0-31.73,20-35.38-32.67,0,0-17.5,22.46,9.48,46.52,0,0,12.42,10.21,25.9,0,0,0,21.89,22.6,39.72,4.54,0,0,13.69-8.87,8.17-19.85,0,0,19.95-3.31,7.15-23,0,0,10.5-14.14-7.15-32.37,0,0-18.68-16-30.92.73,0,0-3.81-10.94-9.48-11.66s41.54-11.93,48.69,14.49c0,0,1.53,2.6,3.14,12.56,0,0,33.46-6.71,34.54,18.2,0,0,1.09,32.05-16.89,26.85,0,0-10.18-4.33-10.61-7.15,0,0,3.9,42.24-19.71,39.21,0,0-1.95.21-6.5-2.39,0,0,11.91,13-3,15,0,0-13.07,3.61-16.24-10.4,0,0-17.33,12.78-34.22-1.08,0,0-10.18-6.28-10.62-12.56,0,0-24.69,1.3-24.47-14.51,0,0,9.52,10.79,16,7.14,0,0-34-29.24-14.3-62.59A9.47,9.47,0,0,0,225.78,273.92Z"/><path class="cls-8" d="M247.6,289.66s-11.33-6.5,2.46-11.09c0,0,9.44-1.94,8.47,3.38a4.87,4.87,0,0,1,5.33.73s21.3-8.47,18.88,8.71c0,0,8.23-1.93,8.23,6.78,0,0,7.75.73,2.42,9.68,0,0-3.63,9.44-11.38,6.06,0,0-9.44,3.14-9.19-3.39,0,0-2.18,8-9.69,1.69,0,0-17.18,3.87-11.37-5.32,0,0-8.72-3-3.63-10.45C248.13,296.44,242.71,293,247.6,289.66Z"/><path class="cls-4" d="M364.22,101.63s4.75-11.78,9.42-13.4C373.64,88.23,367.35,104.21,364.22,101.63Z"/><path class="cls-4" d="M503.85,320.48s12.62-1.42,16.27,1.92C520.12,322.4,503.08,324.46,503.85,320.48Z"/><path class="cls-4" d="M150.34,132s-8.73-9.22-8.26-14.15C142.08,117.84,154,130.21,150.34,132Z"/></svg>