<svg id="Layer_1" data-name="Layer 1" xmlns="http://www.w3.org/2000/svg" xmlns:xlink="http://www.w3.org/1999/xlink" viewBox="0 0 607.04 610"><defs><style>.cls-1{fill:#070014;stroke:#003;}.cls-1,.cls-9{stroke-miterlimit:10;}.cls-2{fill:url(#linear-gradient);}.cls-3{fill:#eaf4f0;}.cls-4{fill:url(#linear-gradient-2);}.cls-5{fill:#fff;}.cls-6{fill:#c69c6d;}.cls-7{fill:#ffffe8;}.cls-8{fill:#103d2c;}.cls-9{fill:none;stroke:#fff;}</style><linearGradient id="linear-gradient" x1="281.11" y1="449.31" x2="508.58" y2="449.31" gradientUnits="userSpaceOnUse"><stop offset="0" stop-color="#10492c"/><stop offset="1" stop-color="#061c13"/></linearGradient><linearGradient id="linear-gradient-2" x1="366.88" y1="61.7" x2="431.97" y2="61.7" gradientUnits="userSpaceOnUse"><stop offset="0" stop-color="#edc89f"/><stop offset="1" stop-color="#af845d"/></linearGradient></defs><ellipse class="cls-1" cx="303.52" cy="305" rx="303.02" ry="304.5"/><path class="cls-2" d="M374.33,349.71s-8.52,20.44-29.45,8.1c0,0-14.54-7.32-18.79-21.12,0,0-1.42-6.59,0-10.49,0,0,3.54-10.17-4.5-10.88,0,0-11.35-2.48-20.57,9.93,0,0-15.08,14.51-4.3,47.41,0,0,7.86,20.95,15.75,39.47,0,0,11.15,25.61-8.33,47.62,0,0-33.86,33.87-19.47,80.44,0,0,6.77,36.4,83,41.91,0,0,72,7.19,106.25-11,0,0,43.61-17.78,33-58.42,0,0-.42-24.55-26.24-57.15,0,0-16.82-16.4-6.88-32.42,0,0,14.2-22.13,16-44.64,0,0-.61-21.17-11.15-25.59,0,0-7.91-5.21-14,3.7,0,0-1.42,12-5.68,19.88,0,0-12.43,23.37-46.88,4.48Z" transform="translate(-92.98 -1.5)"/><path class="cls-3" d="M373.07,376.61s-16.79-7.63-19.21,0c0,0-4.34,4,3.64,20.31,0,0,6.07,8-.69,23.6,0,0-7.47,23.61-12.15,31.07,0,0-15.1,23.43-6.08,36.79,0,0,3.3,9.9,27.25,13.72,0,0-.52-8.51,4.51-8.86l41.83-.34s8.68.34,5.55,9.2c0,0,23.26-3,38,5.72a201.52,201.52,0,0,1,20.48,15.1s17.19,13,21.35,0c0,0,5.55-5-1.56-24.64,0,0-13.71-31.94-26.38-45.3,0,0-13.19-11.46-4.17-28.46,0,0,12.85-24.3,15.8-36.8,0,0,3.81-16.66-2.26-25.34,0,0-4.51-6.59-8.85-1.39a6.59,6.59,0,0,0-1.39,6.18s-7.63,41.68-56.4,19.79Z" transform="translate(-92.98 -1.5)"/><path class="cls-4" d="M367.35,101.9l30.8-79.81s7.7-13.77,21.94-8.87c0,0,13.76,5.14,11.66,17.27,0,0-3.73,13.3-15.63,12.37l9.33,47.37s-18,12.37-18.2,21H377.38s-4.2-4.2-8.17-3C369.21,108.2,365.63,106.36,367.35,101.9Z" transform="translate(-92.98 -1.5)"/><ellipse class="cls-5" cx="309.37" cy="26.09" rx="4.71" ry="4.09"/><ellipse class="cls-5" cx="304.66" cy="39.5" rx="4.71" ry="4.09"/><ellipse class="cls-5" cx="298.95" cy="52.91" rx="4.71" ry="4.09"/><ellipse class="cls-5" cx="293.59" cy="67.19" rx="4.71" ry="4.09"/><ellipse class="cls-5" cx="288.88" cy="80.63" rx="4.71" ry="4.09"/><ellipse class="cls-5" cx="283.1" cy="94.08" rx="4.71" ry="4.09"/><path d="M377.38,111.24h29.87l5.18,280s-20.38,8.65-39.36,0Z" transform="translate(-92.98 -1.5)"/><polygon class="cls-6" points="280.22 384.34 319.31 384.34 319.37 385.46 280.17 385.46 280.22 384.34"/><polygon class="cls-6" points="284.33 115.07 314.36 115.07 314.4 116.86 284.29 116.86 284.33 115.07"/><polygon class="cls-6" points="283.94 136.99 314.76 136.99 314.81 138.97 283.9 138.97 283.94 136.99"/><polygon class="cls-6" points="283.7 156.76 315.13 156.76 315.18 158.9 283.66 158.9 283.7 156.76"/><polygon class="cls-6" points="283.4 176.93 315.5 176.93 315.55 179 283.36 179 283.4 176.93"/><polygon class="cls-6" points="283.12 194.35 315.8 194.35 315.85 196.46 283.08 196.46 283.12 194.35"/><polygon class="cls-6" points="282.85 211.21 316.13 211.21 316.18 213.09 282.81 213.09 282.85 211.21"/><polygon class="cls-6" points="282.61 227.78 316.42 227.78 316.47 229.73 282.57 229.73 282.61 227.78"/><polygon class="cls-6" points="282.21 242.59 316.71 242.59 316.76 244.62 282.17 244.62 282.21 242.59"/><polygon class="cls-6" points="282.21 257.55 316.99 257.55 317.04 259.52 282.17 259.52 282.21 257.55"/><polygon class="cls-6" points="281.95 270.67 317.21 270.67 317.26 272.77 281.91 272.77 281.95 270.67"/><polygon class="cls-6" points="281.75 283.83 317.45 283.83 317.5 285.93 281.7 285.93 281.75 283.83"/><polygon class="cls-6" points="281.57 295.74 317.86 295.74 317.92 297.81 281.52 297.81 281.57 295.74"/><polygon class="cls-6" points="281.41 306.2 317.86 306.2 317.92 308.23 281.36 308.23 281.41 306.2"/><polygon class="cls-6" points="281.23 318.11 318.08 318.11 318.14 320.07 281.18 320.07 281.23 318.11"/><polygon class="cls-6" points="281.07 327.82 318.43 327.82 318.49 329.8 281.03 329.8 281.07 327.82"/><polygon class="cls-6" points="280.93 337.18 318.43 337.18 318.49 338.94 280.88 338.94 280.93 337.18"/><polygon class="cls-6" points="280.79 346.46 318.9 346.46 318.96 348.21 280.74 348.21 280.79 346.46"/><polygon class="cls-6" points="280.67 354.44 318.9 354.44 318.96 356.31 280.62 356.31 280.67 354.44"/><polygon class="cls-6" points="280.54 362.71 318.9 362.71 318.96 364.4 280.49 364.4 280.54 362.71"/><polygon class="cls-6" points="280.41 371 319.07 371 319.13 372.39 280.37 372.39 280.41 371"/><polygon class="cls-6" points="280.29 378.42 319.19 378.42 319.25 379.57 280.24 379.57 280.29 378.42"/><rect class="cls-7" x="296.38" y="166.03" width="4.97" height="4.97"/><rect class="cls-7" x="296.98" y="201.39" width="4.97" height="4.97"/><rect class="cls-7" x="297.28" y="233.46" width="4.97" height="4.97"/><rect class="cls-7" x="297.28" y="262.43" width="4.97" height="4.97"/><rect class="cls-7" x="297.79" y="331.09" width="4.1" height="4.1"/><rect class="cls-7" x="297.3" y="350.13" width="4.97" height="2.48"/><rect class="cls-7" x="297.3" y="366.23" width="4.97" height="2.99"/><path class="cls-8" d="M373.07,403.34h38.59s9.93,3.27.77,8.39H373.07S365.23,407.07,373.07,403.34Z" transform="translate(-92.98 -1.5)"/><path class="cls-8" d="M370.7,439.66h41.91s10.79,3.26.84,8.38H370.7S362.19,443.38,370.7,439.66Z" transform="translate(-92.98 -1.5)"/><path class="cls-8" d="M371.19,471.49,412.88,476s10.33,4.82-.19,9.51l-42.51-4.6S362.27,474.76,371.19,471.49Z" transform="translate(-92.98 -1.5)"/><ellipse class="cls-8" cx="336.91" cy="479.47" rx="9.01" ry="7.85"/><ellipse class="cls-8" cx="365.82" cy="493.56" rx="9.01" ry="7.85"/><ellipse class="cls-8" cx="389.94" cy="511.29" rx="9.01" ry="7.85"/><rect class="cls-5" x="273.97" y="507.66" width="47.83" height="6.39"/><line class="cls-9" x1="285.87" y1="97.39" x2="280.09" y2="510.85"/><line class="cls-9" x1="291.71" y1="83.9" x2="285.87" y2="507.66"/><line class="cls-9" x1="296.98" y1="70.03" x2="294.66" y2="507.66"/><line class="cls-9" x1="301.95" y1="56.06" x2="301.86" y2="507.66"/><line class="cls-9" x1="306.45" y1="43.28" x2="309.03" y2="507.66"/><line class="cls-9" x1="312.6" y1="29.06" x2="316.18" y2="507.66"/></svg>