<svg id="Layer_1" data-name="Layer 1" xmlns="http://www.w3.org/2000/svg" xmlns:xlink="http://www.w3.org/1999/xlink" viewBox="0 0 607.04 610"><defs><style>.cls-1{fill:#070014;stroke:#003;stroke-miterlimit:10;}.cls-2{fill:#fbb03b;}.cls-3{fill:#003;}.cls-4{fill:#fff;}.cls-5{fill:url(#linear-gradient);}.cls-6{fill:#662d91;}.cls-7{fill:#a51c5e;}.cls-8{fill:#0071bc;}.cls-9{fill:#4d4d4d;}.cls-10{fill:#663891;}.cls-11{fill:#d32480;}</style><linearGradient id="linear-gradient" x1="327.85" y1="362.09" x2="438.48" y2="264.92" gradientUnits="userSpaceOnUse"><stop offset="0" stop-color="#a51c5e"/><stop offset="1" stop-color="#542a40"/></linearGradient></defs><ellipse class="cls-1" cx="303.52" cy="305" rx="303.02" ry="304.5"/><path class="cls-2" d="M254.26,415.11l12.53-9.25s6.83-3.64.91-6.14c0,0-12.53,5.23-15.49,10.24C252.21,410,247.43,416.61,254.26,415.11Z" transform="translate(-87.98 -2.39)"/><path class="cls-2" d="M194.59,491.5l72.2-67.19s10.47-10.7,10.7-2.05c0,0-.91,4.1-9.11,12.07l-68.55,60.81s-7.5,6.41-9.75,4.5C190.08,499.64,187.16,498.41,194.59,491.5Z" transform="translate(-87.98 -2.39)"/><path class="cls-2" d="M278,433.23s-9.67,14.19-5,20.21c0,0,3.22,1.94,5-4.41l3-9.45S284.36,426.46,278,433.23Z" transform="translate(-87.98 -2.39)"/><path class="cls-2" d="M397.87,135.28s14.2-6.17,19.14,3.91c0,0,3.91,8-4.12,15,0,0-9.87,9.46-19.54.82C393.35,155,384.88,142.22,397.87,135.28Z" transform="translate(-87.98 -2.39)"/><path class="cls-3" d="M398.12,144.21s6.53-5.44,10.88-1.73c0,0,2.08,3.7-1.21,5.55,0,0-5.14,3.71-8.64,2.27C399.15,150.3,394.83,148.62,398.12,144.21Z" transform="translate(-87.98 -2.39)"/><path class="cls-4" d="M310.22,363s-4.17-10.51,0-15.2l72.9-74.14s-8.43-13.59-6.53-17.82l80.87-15.67Z" transform="translate(-87.98 -2.39)"/><path class="cls-5" d="M310.22,363l80-79.57s-10.43-12.77-12-19.54l74-19.29s5.47-1.82,5.21-4.43l-20.07,79.75s-6.25,1.82-20.32-6.78L348.27,384s-8.34,6.26-19,0C329.25,384,311.26,374,310.22,363Z" transform="translate(-87.98 -2.39)"/><path class="cls-4" d="M378.24,263.84l74.24-17.18a3.86,3.86,0,0,0,2.39-1.43,41.47,41.47,0,0,0,2.59-5.11l-81.23,15.74s-.13,5.54,2.55,9.73Z" transform="translate(-87.98 -2.39)"/><polygon class="cls-2" points="203.1 194.64 215.54 185.66 215.54 164.03 227.38 178.11 246.57 175.05 239.02 186.48 246.57 200.77 231.47 196.07 220.65 216.89 217.38 195.46 203.1 194.64"/><path class="cls-6" d="M355.17,150l5.37,8.24s5.2,7,5.55-.89a26.1,26.1,0,0,0-5.46-11.11S352.48,139.77,355.17,150Z" transform="translate(-87.98 -2.39)"/><path class="cls-7" d="M360.36,223.21a186.31,186.31,0,0,0,49.29.91l27.2-2.27s10.69,2-6.6,6.82L385,234.13s-27.52.23-29.12-6.14C355.87,228,351.72,222.09,360.36,223.21Z" transform="translate(-87.98 -2.39)"/><path class="cls-7" d="M385.78,204.36s18.88,14.85,40.55,10.39c0,0,8.1-1.25-1-4.78l-32.21-9.4S382.9,197.21,385.78,204.36Z" transform="translate(-87.98 -2.39)"/><path class="cls-7" d="M422.48,191.66s11.55,8.91,12.76,10.94c0,0,3.85,4.91-2,5.09,0,0-5.07,1.19-13.57-9.75C419.65,197.94,416.2,191.05,422.48,191.66Z" transform="translate(-87.98 -2.39)"/><polygon class="cls-2" points="365.7 190.46 376.84 189.23 387.57 178.53 387.57 192.92 397.1 201.02 387.78 201.02 388.79 213.2 380.08 203.65 365.7 209.32 371.78 198.39 365.7 190.46"/><path class="cls-8" d="M493.38,225.49s19.24-6.69,21.06-8.91c0,0,6.49-4.46,0-6.49,0,0-16.61.22-23.9,11.76C490.54,221.85,486.66,227.92,493.38,225.49Z" transform="translate(-87.98 -2.39)"/><path class="cls-3" d="M539.36,253.85s-6.48,1.21-5.07,9.72c0,0,2.23,6.28,6.69,3.24,0,0,6.08-3.24,3.65-8.91A4.72,4.72,0,0,0,539.36,253.85Z" transform="translate(-87.98 -2.39)"/><path class="cls-2" d="M531.86,252.63s2.64-5.06,9.93-4.66c0,0,8.1,1.83,9.11,8.31,0,0,2,10.94-5.7,16.81,0,0-11.11,7.7-18-2.43C527.21,270.66,521.94,257.29,531.86,252.63Z" transform="translate(-87.98 -2.39)"/><path class="cls-7" d="M474.74,253.82s-7.9,66.87,1,102.72c0,0,2.05,8.11-4.24,6.08,0,0-3.45,1-5.48-14.18,0,0-11.34-44.16,2-84.47C468.06,264,475.55,245.94,474.74,253.82Z" transform="translate(-87.98 -2.39)"/><path class="cls-7" d="M484.06,258.1s1.82,38.28,6.68,58.14c0,0-1.21,11.95-6.68-1,0,0-10.74-34-4.66-50.44C479.4,264.78,481.43,259.72,484.06,258.1Z" transform="translate(-87.98 -2.39)"/><path class="cls-7" d="M493.58,263.77s.61-6.28,4.46,1.42c0,0,5.06,11.55,0,9.93C498,275.12,494.19,271.67,493.58,263.77Z" transform="translate(-87.98 -2.39)"/><path class="cls-6" d="M440.12,102.27s4.23,37,3.25,58.81c0,0,2.95,16.23,8.19,0,0,0,9.85-33.59-5.72-58.81C445.84,102.27,439.25,93.84,440.12,102.27Z" transform="translate(-87.98 -2.39)"/><path class="cls-8" d="M511.5,139s.5,22.28-11.21,33.74c0,0-8.44,7.91-5.17-4.4l8.26-25.73S506.58,131.42,511.5,139Z" transform="translate(-87.98 -2.39)"/><path class="cls-8" d="M509.86,179.57s39.63-43.24,77.3-30.79c0,0,3.6,3.82-2,7,0,0-12.61,5.79-36.11,10.71,0,0-19.24,4.91-35.62,16.7C513.46,183.17,507.44,185.87,509.86,179.57Z" transform="translate(-87.98 -2.39)"/><path class="cls-8" d="M518.11,155.76s-1,4,3,2.16c0,0,4.13-3.7,4.27-4.55,0,0,2.13-3.55-2.56-3.41C522.8,150,518.54,152.9,518.11,155.76Z" transform="translate(-87.98 -2.39)"/><path class="cls-9" d="M322.29,368.92l-37.11,41.13s-2.56,4.2,0,4.75c0,0,2.2,1.46,5.3-2l34-41.13Z" transform="translate(-87.98 -2.39)"/><path class="cls-7" d="M190.71,282.3s29.2,41,95.36,67.72c0,0,10.25,4-5,3.73,0,0-68-13.36-98.78-65.86,0,0-4.66-5.28-2.49-9.31C179.83,278.58,183,271.38,190.71,282.3Z" transform="translate(-87.98 -2.39)"/><path class="cls-7" d="M273.08,330.27s1.22,4.58,9.85,10.11c0,0,5.8,2.7,5.12-1.21,0,0-2.56-8.9-10.25-12.55C277.8,326.62,271.19,323.52,273.08,330.27Z" transform="translate(-87.98 -2.39)"/><path class="cls-7" d="M298.31,317.72s-4.19,8.23,0,19.43c0,0,3.41,5.93,5.95-1.49l.93-17.94S303.16,309.49,298.31,317.72Z" transform="translate(-87.98 -2.39)"/><path class="cls-7" d="M194.41,329.53s39.67,32.66,92.45,33.42c0,0,12.15-.47,9.59,4.72,0,0-1.19,4.27-12.41,4.58,0,0-52.4,3.35-93.6-34.79,0,0-6.4-5.49-5.79-7.93C184.65,329.53,185.67,323.27,194.41,329.53Z" transform="translate(-87.98 -2.39)"/><path class="cls-7" d="M364,397.65s11.88,9.22,8,14.18c0,0-7.09,3.72-10.28-12.23C361.66,399.6,361,396.76,364,397.65Z" transform="translate(-87.98 -2.39)"/><path class="cls-7" d="M345.53,402.61s2-2.83,4.61.71c0,0,6.38,9.22,3,12.94,0,0-1.77,1.6-4.61-2.66C348.54,413.6,344.47,407.93,345.53,402.61Z" transform="translate(-87.98 -2.39)"/><path class="cls-7" d="M336,404.84s8,17.62,9.39,27c0,0,.89,9.21-5.49,2.83,0,0-10.84-8.58-9.14-25.64C330.72,409.05,333.09,398.11,336,404.84Z" transform="translate(-87.98 -2.39)"/><path class="cls-7" d="M325.68,397.48s-3.19,31.9,1.95,50c0,0,6.56,19.32,6.73,25,0,0,1.24,14.18-8.68,6.56,0,0-24.81-40.05-8.15-79.22C317.53,399.78,324.08,386.85,325.68,397.48Z" transform="translate(-87.98 -2.39)"/><path class="cls-2" d="M208.94,382.41s2.73-4.56,8.2-1.37c0,0,25.05,1.37,61,.12,0,0,11.39-2.85,8.43,3.52,0,0-11.39,10.6-60.58,8.6C226,393.28,204.38,389.92,208.94,382.41Z" transform="translate(-87.98 -2.39)"/><path class="cls-2" d="M304.26,404.84s5.74-6.13,5.62-.64c0,0-20.29,45.53-9.06,113.16,0,0-.48,9.08-6.74,4.26C294.08,521.62,266.91,469.77,304.26,404.84Z" transform="translate(-87.98 -2.39)"/><ellipse class="cls-10" cx="224.86" cy="289.98" rx="3.1" ry="3.48"/><circle class="cls-2" cx="255.54" cy="269.74" r="3.86"/><circle class="cls-6" cx="264.6" cy="282.53" r="2.72"/><ellipse class="cls-6" cx="229.79" cy="253.5" rx="3.14" ry="3.9"/><ellipse class="cls-2" cx="263.84" cy="248.85" rx="4.45" ry="4.14"/><circle class="cls-2" cx="205.4" cy="237.93" r="4.65"/><circle class="cls-2" cx="344.23" cy="344.3" r="5.23"/><circle class="cls-6" cx="300.79" cy="366.78" r="2.73"/><circle class="cls-6" cx="324.68" cy="354.72" r="4.12"/><circle class="cls-6" cx="354.3" cy="384.8" r="4.84"/><circle class="cls-6" cx="370.62" cy="362.92" r="2.36"/><ellipse class="cls-6" cx="449.39" cy="332.36" rx="4.65" ry="3.83" transform="translate(-177.66 477.65) rotate(-51.81)"/><circle class="cls-2" cx="427.11" cy="299.11" r="4.21"/><circle class="cls-6" cx="461.6" cy="291.07" r="4.37"/><circle class="cls-8" cx="417.73" cy="243.96" r="3.02"/><ellipse class="cls-8" cx="549.92" cy="232.95" rx="4.17" ry="6.87" transform="translate(26.54 639.34) rotate(-66.15)"/><circle class="cls-6" cx="431.06" cy="228.81" r="2.95"/><circle class="cls-6" cx="454.34" cy="204.7" r="3.85"/><circle class="cls-6" cx="445.85" cy="127.98" r="3.44"/><ellipse class="cls-6" cx="379.96" cy="153.87" rx="2.47" ry="3.16"/><path class="cls-6" d="M469.54,127.79a9.66,9.66,0,0,0,.87-4.16s1.9-6.5,9.53-4.16c0,0,8.41,2.6,4.33,11.61,0,0-3.9,6.24-12,3.21C472.31,134.29,466.94,131.51,469.54,127.79Z" transform="translate(-87.98 -2.39)"/><path class="cls-8" d="M422.81,163.6s-2.52-5.39,3.85-4.62c0,0,8.47,3.85,8.12,10.57,0,0-2.24,8.33-4.76,5.32,0,0-2-2-1.47-3.92a2.1,2.1,0,0,0-1.4-1.68S423.3,165.77,422.81,163.6Z" transform="translate(-87.98 -2.39)"/><path class="cls-6" d="M531.37,100.26s-2.16-1.58,0-5.82l2.91-4.74s4.32-2.91,3,3.41C537.27,93.11,534.44,102.33,531.37,100.26Z" transform="translate(-87.98 -2.39)"/><path class="cls-6" d="M381.43,99.33s-.84-5.76,2.64-5.52c0,0,6.83-.24,5,16.19,0,0-1.68,5.64-4.79.84C384.31,110.84,384.07,101.61,381.43,99.33Z" transform="translate(-87.98 -2.39)"/><path class="cls-3" d="M508.43,332.36s5.8,3.65,10.87,3.21c0,0-7.8,9.06-10.87,10.23Z" transform="translate(-87.98 -2.39)"/><path class="cls-2" d="M503.17,330.45s1.17-6.14,6.73-3.94c0,0,7,3.94,11.4,3.07,0,0,9.16.58,4.51,7.89L508.43,353.7s-6,2.92-6.57-2.63C501.86,351.07,501.42,336.15,503.17,330.45Z" transform="translate(-87.98 -2.39)"/><path class="cls-11" d="M427.8,311.9l29.66-71.78s1.93.2.78,3.93-20.35,71.76-20.35,71.76S429.48,314.19,427.8,311.9Z" transform="translate(-87.98 -2.39)"/><path class="cls-11" d="M330.72,384.17l81.43-80.93s7.83,5.66,9.32,5.66L349.7,382.67s-6,6.16-12.49,3.83Z" transform="translate(-87.98 -2.39)"/></svg>