<svg id="Layer_1" data-name="Layer 1" xmlns="http://www.w3.org/2000/svg" viewBox="0 0 607.04 610"><defs><style>.cls-1{fill:#070014;stroke:#003;stroke-miterlimit:10;}.cls-2{fill:#f7931e;}.cls-3{fill:#fbd03b;}.cls-4{fill:#fcee50;}.cls-5{fill:#fff;}</style></defs><ellipse class="cls-1" cx="303.52" cy="305" rx="303.02" ry="304.5"/><path class="cls-2" d="M226.29,453S282.2,302.8,477.81,166.48c0,0-103.11,88.11-122,119,0,0,143.23-138.93,224.67-178.78,0,0-193.61,149.51-220.55,199.79,0,0,82.28-85.4,145-126.54,0,0-105.8,97.47-131.27,132.73,0,0,88.16-89.14,105.8-95,0,0-143.7,156.65-181.51,255.26,0,0-16.34,36.07-31.58,39.25,0,0-21.26,7.2-34.49-3.35,0,0-11.89-7.2-11.39-26.46C220.48,482.38,221.35,464.51,226.29,453Z" transform="translate(-92.98 -1.5)"/><path class="cls-3" d="M226.27,476.67s-3-41.21,119.87-185.59c0,0-27.14,44.95-30.33,52.9,0,0,55.92-78.18,97.07-106,0,0-73.2,79.56-72.4,95.87,0,0,29.22-37.42,60-57.29,0,0-64.38,71.57-64.38,80.74,0,0,31.43-34.19,41.37-38.17,0,0-69.83,93.05-93.75,166.22,0,0-8.41,22.37-23.64,25.57,0,0-16.57,5.43-28.41-6.13C231.67,504.84,223.37,496.42,226.27,476.67Z" transform="translate(-92.98 -1.5)"/><path class="cls-4" d="M229.19,487.49s-2.48-32.66,48.74-99L256.64,436s60.88-88.58,68.3-92l-46.76,80.91s29.2-37.11,34.89-37.86c0,0-36.13,62.11-38.35,67.31,0,0,22.26-26,26.22-27.47,0,0-24,67.55-33.18,74.51,0,0-11.8,13.06-24.59,6.23C243.17,507.61,228.87,501.63,229.19,487.49Z" transform="translate(-92.98 -1.5)"/><path class="cls-5" d="M246.77,448.05s-3.68,17.76-2.68,27.8c0,0,9.21-34.49,23.78-46.72,0,0-11.22,27.8-12,41.53,0,0,19.85-32.15,22.87-35.67,0,0-12.06,38.35-16.08,43.37,0,0,14.74-10,18.08-17.24,0,0-13.22,53.08-33.65,44.2,0,0-6.2-2.51-9.55-5.86C237.56,499.46,221.49,489.67,246.77,448.05Z" transform="translate(-92.98 -1.5)"/></svg>