<svg xmlns="http://www.w3.org/2000/svg" xmlns:xlink="http://www.w3.org/1999/xlink" viewBox="0 0 607.04 610"><defs><style>.cls-1{fill:none;}.cls-2{isolation:isolate;}.cls-3{fill:#070014;stroke:#003;stroke-miterlimit:10;}.cls-4{fill:#181111;}.cls-5{fill:#006837;}.cls-6{fill:#3e1a14;}.cls-7{fill:#b56f5b;}.cls-8{fill:#5e3128;}.cls-9{fill:#35160f;}.cls-10{fill:#78443d;}.cls-11{opacity:0.49;mix-blend-mode:multiply;}.cls-12{clip-path:url(#clip-path);}.cls-13{opacity:0.54;}.cls-14{clip-path:url(#clip-path-2);}.cls-15{fill:#b96e5b;}.cls-16{clip-path:url(#clip-path-3);}.cls-17{clip-path:url(#clip-path-4);}.cls-18{clip-path:url(#clip-path-5);}.cls-19{fill:#3f1e0f;}.cls-20{opacity:0.46;}.cls-21,.cls-25{fill:#fff;}.cls-22,.cls-24{fill:#9b594c;}.cls-23,.cls-26{fill:#4c2218;}.cls-24{opacity:0.53;}.cls-25{opacity:0.25;}.cls-26{opacity:0.35;}.cls-27{fill:#22b573;}.cls-28{opacity:0.39;mix-blend-mode:hard-light;}.cls-29{clip-path:url(#clip-path-6);}.cls-30{fill:#6c6565;}.cls-31{fill:#20130b;}.cls-32{fill:#f4a591;}.cls-33{fill:#24100c;}.cls-34{opacity:0.38;}.cls-35{clip-path:url(#clip-path-7);}.cls-36{clip-path:url(#clip-path-8);}.cls-37{clip-path:url(#clip-path-9);}</style><clipPath id="clip-path" transform="translate(-114.7 -2.5)"><rect class="cls-1" x="430.47" y="387.94" width="60.96" height="138.97"/></clipPath><clipPath id="clip-path-2" transform="translate(-114.7 -2.5)"><rect class="cls-1" x="348.08" y="387.41" width="96.72" height="140.15"/></clipPath><clipPath id="clip-path-3" transform="translate(-114.7 -2.5)"><path class="cls-1" d="M319,455H523.41V104.2L429,119.34C368.26,119.34,319,177.06,319,248.26Z"/></clipPath><clipPath id="clip-path-4" transform="translate(-114.7 -2.5)"><rect class="cls-1" x="449.65" y="332.19" width="83.42" height="38.55"/></clipPath><clipPath id="clip-path-5" transform="translate(-114.7 -2.5)"><rect class="cls-1" x="324.19" y="336.97" width="50.92" height="20.14"/></clipPath><clipPath id="clip-path-6" transform="translate(-114.7 -2.5)"><polygon class="cls-1" points="460.79 238.62 568.26 232.44 533.55 72.64 441.32 79.13 460.79 238.62"/></clipPath><clipPath id="clip-path-7" transform="translate(-114.7 -2.5)"><rect class="cls-1" x="322.83" y="256.19" width="83.35" height="51.08"/></clipPath><clipPath id="clip-path-8" transform="translate(-114.7 -2.5)"><rect class="cls-1" x="350.42" y="248.74" width="33.1" height="87.16"/></clipPath><clipPath id="clip-path-9" transform="translate(-114.7 -2.5)"><rect class="cls-1" x="455.38" y="257.32" width="43.9" height="84.41"/></clipPath></defs><g class="cls-2"><g id="Layer_1" data-name="Layer 1"><ellipse class="cls-3" cx="303.52" cy="305" rx="303.02" ry="304.5"/><path class="cls-4" d="M361.05,191.84C348.5,194,340.75,202,343.57,210.13c9.52,27.36,32.21,83.39,54.18,69.11,52.31-34,118.07-14.82,154.75,11.81,13.09,9.5,37.71,5.51,41.56-6.93.93-3-.12-4.33-.12-4.33l-58.58-84.56c-3.11-4.5-9.39-7.77-16.89-8.82C495.27,183.18,440,178.59,361.05,191.84Z" transform="translate(-114.7 -2.5)"/><path class="cls-5" d="M543.51,238.33a604.76,604.76,0,0,1,34.77,57.19c7.61-1.6,14-5.57,15.78-11.4.93-3-.12-4.33-.12-4.33l-58.58-84.56c-3.11-4.5-9.39-7.77-16.89-8.82-4.08-.57-9.18-1.18-15.21-1.72C517.48,202.31,531.07,220.15,543.51,238.33Z" transform="translate(-114.7 -2.5)"/><path class="cls-6" d="M303.23,331.87s-9.89,19.79-18.1.61S268.77,277,294,268.3s9.2,63.57,9.2,63.57" transform="translate(-114.7 -2.5)"/><path class="cls-6" d="M539.35,332.23s9.89,19.79,18.11.61,27.22-56.24,2-64.9-20.07,64.29-20.07,64.29" transform="translate(-114.7 -2.5)"/><path class="cls-7" d="M304.18,326s-8.86,16.18-16.22.5-14.65-45.38,8-52.46,8.23,52,8.23,52" transform="translate(-114.7 -2.5)"/><path class="cls-7" d="M539.37,326s8.86,16.18,16.22.5,24.43-46,1.8-53-18,52.55-18,52.55" transform="translate(-114.7 -2.5)"/><path class="cls-8" d="M289.85,300.51c0-3.25,0-6.65,1.14-9.74,2.16-6,5.13,1.43,5.84,4,1.78,6.43,1.57,13.29,3.43,19.62a.57.57,0,0,0,1.09,0c1.92-5.54.66-12.37-.87-17.91-1.27-4.6-2.85-9.28-7.18-11.8a1.26,1.26,0,0,0-1.5.2c-3.69,4.57-3.47,10-2.89,15.65.06.58.94.61.94,0Z" transform="translate(-114.7 -2.5)"/><path class="cls-8" d="M555.84,289.67a5.85,5.85,0,0,0-.15-3.49,1.05,1.05,0,0,0-1-.74c-4.78-.44-7.69,3-9.4,7.1a87.16,87.16,0,0,0-3.46,10.06c-.67,2.4-1.25,4.38.23,6.5a.81.81,0,0,0,1.46-.19c1.07-3.52,1.53-7.17,2.66-10.73.52-1.65,1-3.35,1.63-4.95a12.1,12.1,0,0,1,2.42-4.05q2.38-3.23,3.86,0c-.17,1.11,1.46,1.62,1.72.48Z" transform="translate(-114.7 -2.5)"/><path class="cls-9" d="M344.07,445.38s0,30,12.66,50.78c2,3.23,34.91,70.56,87.65,36.73s51.06-103.74,51.06-103.74L488.7,401s-136.1-38-144.63,44.43" transform="translate(-114.7 -2.5)"/><path class="cls-10" d="M348.08,437.76s0,28.41,12,48.09c1.86,3,33.05,66.81,83,34.78s48.35-98.24,48.35-98.24a42.82,42.82,0,0,0-35.54-32.52c-38.52-5.53-102.2-6.23-107.8,47.89" transform="translate(-114.7 -2.5)"/><g class="cls-11"><g class="cls-12"><path class="cls-10" d="M491.42,422.39a42.82,42.82,0,0,0-35.54-32.52c-5.49-.79-11.5-1.48-17.77-1.93,8.09,20,12.74,40.89,11.31,63.14-1.24,19.33-6.46,38.47-12.34,56.84q-3.07,9.57-6.61,19a61,61,0,0,0,12.6-6.27c49.95-32,48.35-98.24,48.35-98.24" transform="translate(-114.7 -2.5)"/></g></g><g class="cls-13"><g class="cls-14"><path class="cls-15" d="M402.67,527.56c5.65-7.25,10-15.74,13.63-23.68,16.32-36,24.82-76,28.5-115.36-38.55-3.85-91.63.05-96.72,49.24,0,0,0,28.41,12,48.09,1.29,2.12,16.66,33.37,42.59,41.71" transform="translate(-114.7 -2.5)"/></g></g><path class="cls-6" d="M418.69,117.51C359.29,114,308.27,166.5,303.54,236c-1.4,20.62-2.5,94.48-2.83,99.88-1.14,18.74.29,49.91,22.79,79.07s46.51,43.94,56.17,51.78c8,6.46,26.58,19.56,79.87-10.07,37.28-20.72,64.54-41.48,75.18-68.16C538.45,379.17,542,294,545,261.79c6.87-72.86-39.45-137.73-101.82-142.71Z" transform="translate(-114.7 -2.5)"/><path class="cls-10" d="M426.75,125.39c-59.89-3.73-111.27,49.52-115.48,119.68-1.17,19.47-2.09,92.27-2.38,97.43a117.11,117.11,0,0,0,22.92,76.88c21.24,28.86,42.54,37.74,52.44,44.08s43,10.23,77.45-12.6c17.34-11.47,55.39-35.39,65.48-61.93,3.51-9.22,9-88.52,12.06-120,7-72.75-39.16-137.67-101.44-142.88Z" transform="translate(-114.7 -2.5)"/><g class="cls-13"><g class="cls-16"><path class="cls-7" d="M346,245.61a102.07,102.07,0,0,1-10.63,37.74c-7.57,15.34-14.63,28.7-15.91,46.83l-.06.84c-3.39,49.9,20.89,96.76,60,116.69,1.84.93,3.47,1.8,4.85,2.64,9.9,6,43,9.76,77.45-12,10.68-6.75,29.08-15.06,44-26.37q1.24-2.28,2.43-4.58a152.71,152.71,0,0,0,13.45-36.22c3.39-15.11,2-27.68-3.65-41.64-4.81-11.87-10.28-23.39-12.28-36.47a135.81,135.81,0,0,1-.17-36.53c1.26-10.72,3.3-34.52,5.88-45.41,5.36-22.65,3.16-45.91-13.29-57.67,0,0-73-48.74-125-18.35a68.88,68.88,0,0,0-27.77,31.14,29.52,29.52,0,0,0-2.72,8.28c-2.2,21.56,4.86,54.94,3.42,71.11" transform="translate(-114.7 -2.5)"/></g></g><g class="cls-13"><g class="cls-17"><path class="cls-7" d="M449.65,354.39s28.54-43.91,75.91-8.2c13.51,10.18,4.67,24.55,4.67,24.55s-16.42-18.33-80.58-16.35" transform="translate(-114.7 -2.5)"/></g></g><g class="cls-13"><g class="cls-18"><path class="cls-7" d="M375.1,352.32s-28.62-18.59-40.57-14.85-10.26,19.65-10.26,19.65,14.3-17.76,50.83-4.8" transform="translate(-114.7 -2.5)"/></g></g><path class="cls-19" d="M384.72,455.76s-8.8-7.58-11.69-10.41-8-8-8-8l-4-4.15-5.39-5.63S388,444.46,394.55,442c10.56-4,3.5-18,0-22.06s39.4-4,32.36,1.33c-2.68,2-12.86,19.18,0,22.45,11.16,2.83,32.41-2,42.15-9.75s-23.18,23-35.33,26.48-30.23,7.69-49-4.66" transform="translate(-114.7 -2.5)"/><path class="cls-6" d="M426.68,354.52s3.88-6.91,10.32-3.73c-1.19,1.71-7,3.3-10.32,3.73" transform="translate(-114.7 -2.5)"/><g class="cls-13"><path class="cls-7" d="M429.92,326c-1.64-5.05-2.28-11.83-5.4-15.57-1.89-2.26-3.85-2.45-5.65-1.5-.77,1-1.56,2-2.39,2.93-.19.22-.4.43-.6.64V334c1.69.05,3.69.09,6.09.12,6,.07,7.74-3.61,9.9-3.26A41.32,41.32,0,0,1,429.92,326Z" transform="translate(-114.7 -2.5)"/></g><g class="cls-20"><path class="cls-21" d="M415.88,320.5c3.66.24,8.14,2.59,13.15,9.46-2.21-7.41-7.35-14.18-13.15-13.55Z" transform="translate(-114.7 -2.5)"/></g><path class="cls-22" d="M440.78,351.85A19.06,19.06,0,0,0,444,341.32a19.67,19.67,0,0,0-2.81-10.78,20.29,20.29,0,0,0-2.36-2.93c-1.9-2-4-3.8-6.34-4.15" transform="translate(-114.7 -2.5)"/><path class="cls-23" d="M440.91,352.44a21.65,21.65,0,0,0,3-18.83c-1.8-5.92-7.28-12.06-11.88-10.91-.37.1-.4.89-.1,1.14,3.1,2.56,6.42,4.7,8.55,9.08a19.86,19.86,0,0,1-.57,18c-.6,1,.33,2.44,1,1.5" transform="translate(-114.7 -2.5)"/><path class="cls-6" d="M405.2,354.52s-3.88-6.91-10.32-3.73c1.18,1.71,7,3.3,10.32,3.73" transform="translate(-114.7 -2.5)"/><path class="cls-7" d="M433.6,334.16a38.88,38.88,0,0,1-3.68-8.21c-1.64-5.06-3.86-10.94-5.4-15.57-2.62-7.87-9.54-17.18-18,4.12-1.39,3.52-3.47,8-4.6,11.45-.29.87-.59,1.71-.91,2.52l-.06.15c-.31.78-.63,1.53-1,2.26a31.69,31.69,0,0,1-1.74,3.28c2.53.95,5.2,3,7.76,3.25a23.73,23.73,0,0,1,3.88-3.26h0c2.4,0,4.4-.07,6.09-.12v-2.44a19.2,19.2,0,0,1,9.85,5.82C428.41,337.16,431.08,335.11,433.6,334.16Z" transform="translate(-114.7 -2.5)"/><path class="cls-24" d="M416.8,300.51c-7.07,1.73-16.93,18.09-13.1,37.16.17.73.35,1.42.52,2.1,2.28,8.63,7.38,12.72,12.52,12.92h.12c5.14-.2,10.23-4.29,12.51-12.92.18-.68.35-1.37.52-2.1C433.73,318.6,420.65,300.65,416.8,300.51Z" transform="translate(-114.7 -2.5)"/><path class="cls-23" d="M421.36,357.64a15,15,0,0,1-4.48,3.24,8.86,8.86,0,0,1-.94.34,9,9,0,0,1-.95-.34,15.1,15.1,0,0,1-4.48-3.24,29.39,29.39,0,0,1-3.95-4.95c1.71,4.5,4.3,8.5,7.73,10.85a11.11,11.11,0,0,0,1.59.86v.06l.06,0,.06,0v-.06a11,11,0,0,0,1.58-.86c3.44-2.35,6-6.35,7.73-10.85A28.43,28.43,0,0,1,421.36,357.64Z" transform="translate(-114.7 -2.5)"/><path class="cls-25" d="M416,316.41c-5.8-.63-10.95,6.14-13.15,13.55,5-6.87,9.49-9.22,13.15-9.46,3.66.24,8.14,2.59,13.15,9.46C426.94,322.55,421.8,315.78,416,316.41Z" transform="translate(-114.7 -2.5)"/><path class="cls-22" d="M391.09,351.85a19.14,19.14,0,0,1-3.23-10.53,19.75,19.75,0,0,1,2.8-10.78,20.34,20.34,0,0,1,2.37-2.93c1.9-2,4-3.8,6.34-4.15" transform="translate(-114.7 -2.5)"/><path class="cls-23" d="M391,352.44a21.62,21.62,0,0,1-3-18.83c1.8-5.92,7.28-12.06,11.88-10.91.38.1.41.89.11,1.14-3.11,2.56-6.43,4.7-8.55,9.08a19.83,19.83,0,0,0,.57,18c.59,1-.33,2.44-1,1.5" transform="translate(-114.7 -2.5)"/><path class="cls-26" d="M432.29,346.2c-2.13.76-8,4.15-12.11,6.58a8.86,8.86,0,0,1-9.12,0c-4-2.44-9.36-5.79-11.48-6.54-3.53-1.25-7.17,1.39-8.61,6.24a37.52,37.52,0,0,1,10.76-.59c4,.54,10.42,9.08,12.62,12.06a2,2,0,0,0,1.61.92h0a2,2,0,0,0,1.61-.92c2.19-3,8.6-11.52,12.57-12.06a37.61,37.61,0,0,1,10.77.59C439.47,347.59,435.83,345,432.29,346.2Z" transform="translate(-114.7 -2.5)"/><path class="cls-5" d="M302.25,231.07c1.1,2,157.53-12.43,246.75,8,0-28,21.84-99.55-14.69-134.61-20.46-19.63-145.66-59.83-213.71,2.3-12.69,11.6-12,22.32-14.19,26.6s-8,90.78-4.16,97.68" transform="translate(-114.7 -2.5)"/><path class="cls-27" d="M306.61,226.74c1.08,1.87,151.52-11.94,237.08,7.12.26-26.25,21.84-93.8-13.12-127-19.63-18.66-140.8-56.95-206.68,2.39-12.25,11-11.51,21.21-13.64,25.28-1.52,2.91-4.58,45-4.9,71.4-.13,10.77.19,19,1.26,20.83" transform="translate(-114.7 -2.5)"/><g class="cls-28"><g class="cls-29"><path class="cls-30" d="M530.57,106.84c-9.54-9.07-43.93-23.08-82.9-28.16a30.63,30.63,0,0,0-4.26,13.07c-.65,8.31,2.81,17,6.82,24.72,6.55,12.63,17.2,23.26,25.06,36,9.36,15.17,12.4,31.17,12.16,49.11a175.37,175.37,0,0,1-2.14,24.88c20.27,2.2,49.75,5.49,58.38,7.41.26-26.25,21.84-93.8-13.12-127" transform="translate(-114.7 -2.5)"/></g></g><path class="cls-5" d="M401.79,224.49s-13-98.71-5.7-120.48c2.48-7.39,17.4-25.48,22.72-30.06l11.75-.83S403.79,91,400.32,113.84c-3.62,23.89,11.08,114.1,11.08,114.1Z" transform="translate(-114.7 -2.5)"/><path class="cls-5" d="M323.62,114.77s89.68-40.43,201.69-.61c-14.43-7.82-131.51-26.88-201.69.61" transform="translate(-114.7 -2.5)"/><path class="cls-10" d="M382.42,410.49S382,431.22,413.73,431s40.93-22.37,40.93-22.37-13,18.64-40.41,18.08-31.83-16.22-31.83-16.22" transform="translate(-114.7 -2.5)"/><path class="cls-31" d="M387.64,385.36s-7.86,14.41,5.7,17.76,29.6,3,39.45-1.23,15-20.48,15-20.48-35.76,13.19-60.19,3.95" transform="translate(-114.7 -2.5)"/><path class="cls-32" d="M419.7,395.14c-8.81-.14-16.84,3.34-23.67,8.58,13,2.68,27.55,2.09,36.76-1.83a15.44,15.44,0,0,0,3.06-1.78,31,31,0,0,0-16.15-5" transform="translate(-114.7 -2.5)"/><path class="cls-21" d="M376.91,381.25s11.94,7,32,10.41,40-9.21,40-9.21Z" transform="translate(-114.7 -2.5)"/><path class="cls-23" d="M415.66,374c-6.26.2-2.14,3.93-6.21,4-2.08,0-1.24-3.87-5.71-3.8-8.87.13-30,6.46-30,6.46.19,0,26-.5,28.12.79a12.32,12.32,0,0,0,16.76,2.07,7.48,7.48,0,0,1,.79-.52c2.5-1.32,25.36-1.32,30.58-1.05,0,0-26-8.18-34.31-7.91" transform="translate(-114.7 -2.5)"/><path class="cls-23" d="M337.78,244.31s47.37-15.85,58.38-2.79c.06-19.23-14.43-24.37-14.43-24.37s-27.88,2.93-44,27.16" transform="translate(-114.7 -2.5)"/><path class="cls-23" d="M507.25,245.73s-47.38-15.85-58.39-2.79c-.05-19.23,14.44-24.37,14.44-24.37s27.88,2.94,43.95,27.16" transform="translate(-114.7 -2.5)"/><path class="cls-33" d="M530.92,279.51l.1-1.18c.74-8.67-5.2-16.41-13.5-17.6-17.16-2.46-162.67-13.26-181.81-12.76-7.82.2-14.89,4.71-16.37,12.69-3.36,18-7.11,49.2,3.81,62.33,15.79,19,62.53,14.74,67.38,5.49C412.31,287,404.16,280.1,421,280.1c11.07,0,10.94,27.33,12.11,34.58,1.11,6.83,3.83,11.54,8.28,16.9,16.33,19.62,70.62,8.23,77.41,0s9.62-20.89,12.76-38.71Z" transform="translate(-114.7 -2.5)"/><g class="cls-34"><g class="cls-35"><path class="cls-21" d="M322.83,307.26s1.52-42.92,7.62-49.19,75.73,5.14,75.73,5.14-59.05-4.72-69.22,0-14.13,44.05-14.13,44.05" transform="translate(-114.7 -2.5)"/></g></g><rect class="cls-33" x="186.77" y="260.32" width="22.72" height="16.79"/><rect class="cls-33" x="407.21" y="275.83" width="22.72" height="16.79"/><g class="cls-34"><g class="cls-36"><path class="cls-21" d="M382.25,250.17c-9-.57-17.3-1.06-24.38-1.43-13.23,29.13-7.34,59.47,5.93,87.16,7.56-.09,12.79-1.61,19.72-4.2a208.87,208.87,0,0,1-10.13-37.13c-1.68-9.56-2.18-19.48,1-28.78a68.63,68.63,0,0,1,7.9-15.62" transform="translate(-114.7 -2.5)"/></g></g><g class="cls-34"><g class="cls-37"><path class="cls-21" d="M486.7,296.77a79.88,79.88,0,0,1,5.28-37c-6.53-.65-16.1-1.49-27.49-2.42-5,8.58-8.4,18.07-9,28.18-1,18.65,4,39.15,12.16,56.21,13.83-1.42,26.52-5.22,31.6-8.81a79.31,79.31,0,0,1-12.58-36.14" transform="translate(-114.7 -2.5)"/></g></g></g></g></svg>